<?xml version="1.0" encoding="utf-8"?>
<!-- Generator: Adobe Illustrator 27.0.0, SVG Export Plug-In . SVG Version: 6.00 Build 0)  -->
<svg version="1.1" id="Слой_1" xmlns="http://www.w3.org/2000/svg" xmlns:xlink="http://www.w3.org/1999/xlink" x="0px" y="0px"
	 viewBox="0 0 103 103" style="enable-background:new 0 0 103 103;" xml:space="preserve">
<style type="text/css">
	.st0{fill:none;stroke:#000000;stroke-width:6;stroke-miterlimit:10;}
	.st1{stroke:#000000;stroke-miterlimit:10;}
	.st2{fill:#FFFFFF;}
</style>
<circle class="st0" cx="51.5" cy="51.5" r="46.85"/>
<path class="st1" d="M49.66,74.58c0.34,0.01,1.47,0.02,2.54-0.77c1.2-0.88,1.49-2.13,1.55-2.43c0.28,0.86,0.66,2.43,0.33,4.31
	c-0.52,2.96-2.44,4.74-3.32,5.53c-2.37,2.13-4.99,2.66-6.74,2.99c-4.9,0.92-8.85-0.54-10.61-1.22c-2.85-1.09-5.09-2.63-6.74-4.09
	c7.7-1.07,11.79-0.83,14.15-0.33c0.72,0.15,2.79,0.65,3.98-0.44c0.73-0.67,0.87-1.71,0.88-2.43c-1.06,0.05-2.58,0.1-4.42,0.11
	c-3.85,0.03-6.54,0.04-9.07-0.33c-2.11-0.31-6.28-0.93-9.95-3.76c-4.71-3.63-6.09-8.97-6.52-11.17c1.74,2.04,3.46,3.47,4.75,4.42
	c1.71,1.25,3.5,2.56,6.19,3.32c2.49,0.7,4.69,0.63,6.19,0.44c-1.55-0.86-3.66-2.15-5.97-3.98c-1.93-1.52-5-3.99-7.85-8.07
	c-1.74-2.49-3.25-4.67-3.98-7.96c-0.95-4.31,0.01-7.97,0.66-9.84c0.13,1.66,0.55,4.23,1.99,6.97c2.59,4.92,6.78,7.19,8.4,7.96
	c-1-1.47-2.38-3.75-3.54-6.74c-1.45-3.74-3.41-8.84-1.77-14.48c0.47-1.6,1.76-5.1,5.64-8.4c-0.47,1.86-0.88,4.17-1,6.85
	c-0.14,3.31,0.22,6.14,0.66,8.29c0.41-1.99,1.11-4.89,2.32-8.29c1.82-5.12,2.96-8.31,5.86-11.06c1.29-1.23,3.95-3.32,8.51-4.31
	c-1.08,0.7-2.45,1.76-3.76,3.32c-2.08,2.46-3,4.98-3.43,6.52c2.35-2.79,4.68-4.66,6.41-5.86c0.51-0.36,8.04-5.48,14.37-5.75
	c0.59-0.02,2.19-0.05,4.2-0.66c1.62-0.49,2.86-1.17,3.65-1.66c-0.16,0.44-0.6,1.88,0.11,3.21c0.15,0.28,0.47,0.78,1.44,1.44
	c1.61,1.1,2.93,1.22,3.87,1.55c2.37,0.84,3.43,3.33,4.09,4.75c1.28,2.75,1.12,5.24,1,6.3c1.64,2.23,3.25,3.13,4.42,3.54
	c0.79,0.28,2.32,0.66,3.43,1.88c0.35,0.38,0.61,0.8,0.66,1.33c0.03,0.33-0.01,0.82-0.55,1.66c-0.37,0.57-1.15,1.58-2.65,2.43
	c-0.11-0.06-1.59-0.86-2.87-0.11c-0.45,0.26-0.73,0.62-0.88,0.88c-0.1-0.35-0.31-0.86-0.77-1.22c-0.67-0.5-1.49-0.4-2.1-0.33
	c-1.04,0.11-2.48,0.21-4.42,0.22c1.49,2.03,2.97,2.9,4.09,3.32c0.9,0.33,2.11,0.57,2.54,1.55c0.03,0.07,0.34,0.79,0,1.44
	c-0.33,0.63-1.09,0.79-1.55,0.88c-1.4,0.28-2.6-0.15-3.43-0.44c-1.65-0.58-3.32-1.1-4.98-1.66c-0.2-0.07-2.55-0.86-4.98-1.33
	c-1.72-0.33-4.2-0.64-7.3-0.44c-0.39-0.81-1.31-2.97-0.88-5.75c0.33-2.18,1.33-3.7,1.88-4.42c-1.22,0.48-2.43,0.96-3.65,1.44
	c-0.13-0.66-0.34-2.21,0.33-3.98c0.44-1.15,1.07-1.81,1.88-2.76c0.95-1.11,2.23-2.73,3.65-4.86c-1.23,0.56-3.14,1.63-4.98,3.54
	c-2.1,2.19-3.04,4.38-3.32,5.09c-1.26,3.17-1.16,6.01-1,7.52c0.66-0.96,1.33-1.92,1.99-2.87c0.07,2.54,0.15,5.09,0.22,7.63
	c-1.97,0.03-3.51,0.37-4.53,0.66c-1.2,0.35-1.65,0.62-1.99,1c-0.98,1.06-0.84,2.6-0.77,3.1c-0.97-0.15-2.84-0.3-4.98,0.44
	c-3.06,1.06-4.67,3.24-5.2,3.98c-2.57,3.59-2.13,7.54-1.99,8.51c0.47-0.59,1.65-1.9,3.65-2.54c1.14-0.37,3.4-0.95,4.27-1.16
	c0.77-0.19,7.24-0.75,6.74,0.46c-2.76,2.14-3.54,3.23-4.58,3.67c-0.6,0.25-4.68,3.09-6.76,1.46c-0.13,0.28-0.26,0.71-0.11,1.11
	c0.11,0.29,0.44,0.74,1.66,1c3.22,0.68,8.13-0.92,12.38,0.44c1.03,0.33,3.13,1,3.98,2.87C52.63,70.85,49.89,74.3,49.66,74.58z"/>
<path d="M44.03,49.71c-0.23-0.57-0.12-1.22,0.22-1.66c0.3-0.39,0.76-0.57,1.22-0.66c2.08-0.43,7.61,0.06,8.18,0.11
	c-1.11,0.92-2.1,1.65-2.87,2.21c-1.55,1.11-2.35,1.56-2.32,2.21c0.02,0.46,0.45,0.85,1.33,1.33c2.46,1.32,4.96,1.33,5.2,1.33
	c2.48,0.01,4.64,1.34,8.96,3.87c2.18,1.28,5.15,3.31,8.18,6.41c-1.29-0.07-2.58-0.15-3.87-0.22c1.89,1.45,3.26,2.88,4.2,3.98
	c0.66,0.77,1.73,2.11,2.76,3.98c1.06,1.91,1.59,2.9,1.44,4.2c-0.15,1.25-0.95,2.15-1.66,2.99c-0.83,0.98-1.7,1.61-2.32,1.99
	c-0.11-1.4-0.22-2.8-0.33-4.2c-0.2-1.73-0.68-4.28-1.99-7.08c-2.17-4.64-5.33-7.26-7.52-9.07c-3.64-3.01-9.61-6.63-12.6-6.74
	c-0.2-0.01-1.54-0.04-2.76-0.88c-0.38-0.26-1.1-0.76-1.11-1.44c0-0.61,0.58-1.07,1.33-1.66c0.89-0.71,1.54-0.72,1.51-0.93
	c-0.04-0.32-1.55-0.72-2.45-0.12c-0.18,0.12-0.32,0.27-0.75,0.54c-0.48,0.3-0.72,0.45-0.97,0.44
	C44.52,50.59,44.16,50.05,44.03,49.71z"/>
<path d="M82.78,70.16c1.16-1.95,2.32-3.91,3.48-5.86c-1.71-1.6-3.94-3.41-6.74-5.09c-4.41-2.64-8.56-3.95-11.61-4.64
	c1.89,1.11,4.1,2.61,6.36,4.64c3.18,2.86,5.38,5.8,6.85,8.13C81.67,68.28,82.22,69.22,82.78,70.16z"/>
<path d="M77.08,48.43c3.65,1.97,7.3,3.94,10.95,5.91c0.3-1.52-0.09-2.37-0.33-2.76c-0.72-1.16-2.34-1.84-3.1-2.16
	c-0.91-0.38-1.4-0.43-1.6-0.88c-0.28-0.61,0.19-1.42,0.66-2.05c-0.75,0.35-1.6,0.69-2.54,1C79.63,47.98,78.27,48.26,77.08,48.43z"/>
<path class="st2" d="M64.98,27.15c1.48-0.05,2.66-0.03,3.48,0c0.78,0.03,1.31,0.06,1.88-0.25c0.76-0.42,1.11-1.2,1.27-1.69
	c0.06,0.14,0.63,1.62-0.11,2.63c-0.21,0.29-0.63,0.67-1.16,0.91c-0.43,0.19-0.6,0.14-0.8,0.3c-0.28,0.22-0.51,0.76-0.19,2.18
	C67.89,29.88,66.43,28.51,64.98,27.15z"/>
</svg>
